<svg width="28" height="20" viewBox="0 0 28 20" fill="none" xmlns="http://www.w3.org/2000/svg">
<g id="GB">
<rect id="Mask Copy" width="28" height="20" rx="3" fill="#0A17A7"/>
<mask id="mask0_910_371" style="mask-type:luminance" maskUnits="userSpaceOnUse" x="0" y="0" width="28" height="20">
<rect id="Mask Copy_2" width="28" height="20" rx="3" fill="white"/>
</mask>
<g mask="url(#mask0_910_371)">
<path id="Rectangle 2" fill-rule="evenodd" clip-rule="evenodd" d="M-1.28244 -1.91644L10.6667 6.14335V-1.33333H17.3334V6.14335L29.2825 -1.91644L30.7737 0.294324L21.3263 6.66667H28V13.3333H21.3263L30.7737 19.7057L29.2825 21.9165L17.3334 13.8567V21.3333H10.6667V13.8567L-1.28244 21.9165L-2.77362 19.7057L6.67377 13.3333H2.95639e-05V6.66667H6.67377L-2.77362 0.294324L-1.28244 -1.91644Z" fill="white"/>
<path id="Line" d="M18.668 6.33219L31.3333 -2" stroke="#DB1F35" stroke-width="0.666667" stroke-linecap="round"/>
<path id="Line Copy 2" d="M20.0128 13.6975L31.3666 21.3503" stroke="#DB1F35" stroke-width="0.666667" stroke-linecap="round"/>
<path id="Line Copy" d="M8.00513 6.31055L-3.83789 -1.6709" stroke="#DB1F35" stroke-width="0.666667" stroke-linecap="round"/>
<path id="Line Copy 3" d="M9.28963 13.605L-3.83789 22.3105" stroke="#DB1F35" stroke-width="0.666667" stroke-linecap="round"/>
<path id="Rectangle 2 Copy 3" fill-rule="evenodd" clip-rule="evenodd" d="M0 12H12V20H16V12H28V8H16V0H12V8H0V12Z" fill="#E6273E"/>
</g>
</g>
</svg>
