<svg width="31" height="31" viewBox="0 0 31 31" fill="none" xmlns="http://www.w3.org/2000/svg">
<g id="icons/navbar/ic_banking">
<g id="shape" opacity="0.32">
<path d="M15.4154 14.2754C21.2327 14.2754 24.6627 14.1494 26.3827 14.0583C27.1787 14.0161 27.7826 13.3574 27.7826 12.5602V11.1147C27.7826 10.5586 27.6034 10.0129 27.2095 9.62026C24.8989 7.317 19.5889 4.34857 15.9905 3.56308C15.6103 3.48007 15.2206 3.48007 14.8404 3.56308C11.2419 4.34857 5.93193 7.317 3.62137 9.62026C3.22747 10.0129 3.04828 10.5586 3.04828 11.1147V12.5602C3.04828 13.3574 3.65216 14.0161 4.44818 14.0583C6.16815 14.1494 9.59811 14.2754 15.4154 14.2754Z" fill="#637381"/>
<path d="M3.26928 24.1427C3.42997 23.6762 3.89701 23.464 4.38962 23.4361C5.66902 23.3634 8.80111 23.2416 15.4154 23.2416C22.0298 23.2416 25.1619 23.3634 26.4412 23.4361C26.9338 23.464 27.4009 23.6762 27.5616 24.1427C27.6806 24.4884 27.7826 24.9946 27.7826 25.715C27.7826 26.4354 27.6806 26.9416 27.5616 27.2873C27.4009 27.7538 26.9338 27.9659 26.4412 27.9939C25.1619 28.0665 22.0298 28.1884 15.4154 28.1884C8.80111 28.1884 5.66902 28.0665 4.38962 27.9939C3.89701 27.9659 3.42997 27.7538 3.26928 27.2873C3.15022 26.9416 3.04828 26.4354 3.04828 25.715C3.04828 24.9946 3.15022 24.4884 3.26928 24.1427Z" fill="#637381"/>
</g>
<g id="shape_2">
<path d="M15.4154 12.1111C16.7815 12.1111 17.8889 11.0037 17.8889 9.63769C17.8889 8.27165 16.7815 7.16426 15.4154 7.16426C14.0494 7.16426 12.942 8.27165 12.942 9.63769C12.942 11.0037 14.0494 12.1111 15.4154 12.1111Z" fill="#637381"/>
<path d="M17.823 14.2677C17.0704 14.2726 16.2686 14.2753 15.4154 14.2753C14.5623 14.2753 13.7605 14.2726 13.0079 14.2677C12.9763 15.0732 12.942 16.5028 12.942 18.9131C12.942 21.0396 12.9687 22.4028 12.9967 23.2474C13.7459 23.2436 14.5509 23.2416 15.4154 23.2416C16.28 23.2416 17.085 23.2436 17.8342 23.2474C17.8622 22.4028 17.8889 21.0396 17.8889 18.9131C17.8889 16.5028 17.8546 15.0732 17.823 14.2677Z" fill="#637381"/>
<path d="M20.4293 14.2398C20.3974 15.04 20.3623 16.4747 20.3623 18.9131C20.3623 21.0579 20.3895 22.4262 20.4177 23.2692C22.6462 23.2963 24.1989 23.3395 25.2499 23.3804C25.2795 22.5485 25.3092 21.155 25.3092 18.9131C25.3092 16.3388 25.2701 14.8831 25.2369 14.1118C24.0874 14.1593 22.5103 14.208 20.4293 14.2398Z" fill="#637381"/>
<path d="M5.59402 14.1118C6.74345 14.1593 8.32059 14.208 10.4016 14.2398C10.4335 15.04 10.4686 16.4747 10.4686 18.9131C10.4686 21.0579 10.4414 22.4262 10.4132 23.2692C8.18468 23.2963 6.63203 23.3395 5.58098 23.3804C5.55141 22.5485 5.52173 21.155 5.52173 18.9131C5.52173 16.3388 5.56087 14.8831 5.59402 14.1118Z" fill="#637381"/>
</g>
</g>
</svg>
